<svg xmlns="http://www.w3.org/2000/svg" fill="none" viewBox="0 0 123 122"><g clip-path="url(#a)"><mask id="b" width="107" height="122" x="8" y="0" maskUnits="userSpaceOnUse" style="mask-type:alpha"><path fill="#000" d="m61.67 0 52.7 30.426v60.852l-52.7 30.427-52.7-30.427V30.426L61.67 0Z"/></mask><g mask="url(#b)"><path fill="#280068" d="M6.818-1h109.333v123H6.818z"/><path fill="#659AD2" d="M115.665 34.806c0-2.048-.438-3.857-1.324-5.41-.87-1.528-2.173-2.808-3.921-3.82C95.992 17.258 81.551 8.966 67.128.64 63.24-1.605 59.47-1.523 55.611.754 49.868 4.139 21.117 20.61 12.55 25.572c-3.528 2.042-5.245 5.168-5.246 9.23-.006 16.728 0 33.456-.006 50.185 0 2.002.42 3.777 1.267 5.306.87 1.574 2.192 2.889 3.98 3.924 8.568 4.962 37.323 21.431 43.064 24.818 3.861 2.278 7.631 2.359 11.52.115 14.424-8.327 28.866-16.62 43.295-24.938 1.789-1.035 3.11-2.35 3.98-3.923.846-1.53 1.267-3.304 1.267-5.307 0 0 0-33.447-.006-50.176Z"/><path fill="#004482" d="M61.65 60.337 8.566 90.899c.87 1.573 2.192 2.888 3.98 3.924 8.568 4.961 37.323 21.43 43.064 24.818 3.861 2.278 7.631 2.359 11.52.114 14.424-8.327 28.866-16.62 43.295-24.938 1.789-1.034 3.11-2.35 3.98-3.922L61.651 60.337Z"/><path fill="#00599C" d="M115.665 35.411c0-2.047-.438-3.857-1.324-5.41l-52.69 30.336 52.753 30.558c.846-1.53 1.266-3.304 1.267-5.308 0 0 0-33.447-.006-50.176Z"/><path fill="#fff" d="M61.767 20.222c14.902 0 27.912 8.092 34.881 20.12l-.068-.115L79.047 50.32c-3.454-5.848-9.787-9.795-17.051-9.877h-.23c-11.077 0-20.058 8.98-20.058 20.056a19.96 19.96 0 0 0 2.646 9.95c3.457 6.036 9.957 10.106 17.413 10.106 7.502 0 14.039-4.122 17.479-10.222l-.084.147L96.67 80.62c-6.893 11.927-19.725 19.994-34.453 20.155l-.449.002c-14.949 0-27.996-8.142-34.948-20.234A40.092 40.092 0 0 1 21.485 60.5c0-22.245 18.034-40.279 40.282-40.279Z"/></g></g><defs><clipPath id="a"><path fill="#fff" d="M.818 0h121.705v121.705H.818z"/></clipPath></defs></svg>