<svg xmlns="http://www.w3.org/2000/svg" fill="none" viewBox="0 0 123 122"><g clip-path="url(#a)"><mask id="b" width="106" height="122" x="8" y="0" maskUnits="userSpaceOnUse" style="mask-type:alpha"><path fill="#000" d="m61.261 0 52.7 30.426v60.852l-52.7 30.427-52.7-30.427V30.426L61.262 0Z"/></mask><g mask="url(#b)"><path fill="#280068" d="M6.409-1h109.333v123H6.409z"/><path fill="#A179DC" d="M115.256 34.806c0-2.048-.438-3.857-1.324-5.41-.87-1.528-2.173-2.808-3.921-3.82C95.583 17.258 81.142 8.966 66.719.64c-3.888-2.244-7.658-2.162-11.517.115C49.459 4.139 20.708 20.61 12.14 25.572c-3.528 2.042-5.245 5.168-5.246 9.23-.006 16.728 0 33.456-.006 50.185 0 2.002.42 3.777 1.267 5.306.87 1.574 2.192 2.889 3.98 3.924 8.568 4.962 37.323 21.431 43.064 24.818 3.861 2.278 7.631 2.359 11.52.115 14.424-8.327 28.866-16.62 43.295-24.938 1.789-1.035 3.11-2.35 3.98-3.923.846-1.53 1.267-3.304 1.267-5.307 0 0 0-33.447-.006-50.176Z"/><path fill="#280068" d="M61.242 60.337 8.156 90.899c.87 1.573 2.192 2.888 3.98 3.924 8.568 4.961 37.323 21.43 43.064 24.818 3.861 2.278 7.631 2.359 11.52.114 14.424-8.327 28.866-16.62 43.295-24.938 1.789-1.034 3.11-2.35 3.98-3.922L61.241 60.337Z"/><path fill="#390091" d="M115.256 35.411c0-2.047-.438-3.857-1.324-5.41l-52.69 30.336 52.753 30.558c.846-1.53 1.266-3.304 1.267-5.308 0 0 0-33.447-.006-50.176Z"/><path fill="#fff" d="M92.496 48.912v5.712h5.713v-5.712h2.857v5.712h5.713v2.857h-5.713v5.712h5.713v2.856h-5.713v5.713h-2.857V66.05h-5.713v5.713H89.64V66.05h-5.713v-2.856h5.712v-5.712h-5.712v-2.857h5.712v-5.712h2.857Zm5.713 8.568h-5.713v5.713h5.713V57.48Z"/><path fill="#fff" d="M61.358 20.222c14.902 0 27.912 8.092 34.881 20.12l-.068-.115L78.638 50.32c-3.454-5.848-9.787-9.795-17.051-9.877h-.23C50.28 40.443 41.3 49.423 41.3 60.5a19.96 19.96 0 0 0 2.646 9.95c3.457 6.036 9.957 10.106 17.413 10.106 7.502 0 14.039-4.122 17.479-10.222l-.084.147L96.26 80.62c-6.893 11.927-19.725 19.994-34.453 20.155l-.449.002c-14.949 0-27.996-8.142-34.947-20.234A40.092 40.092 0 0 1 21.075 60.5c0-22.245 18.034-40.279 40.282-40.279Z"/></g></g><defs><clipPath id="a"><path fill="#fff" d="M.409 0h121.705v121.705H.409z"/></clipPath></defs></svg>