<svg xmlns="http://www.w3.org/2000/svg" width="24" height="24" fill="none"><path fill="#121212" d="M12 0a11.7 11.7 0 0 1 3.188.432 11.22 11.22 0 0 1 2.859 1.25 13.196 13.196 0 0 1 2.426 1.922 11.68 11.68 0 0 1 1.886 2.486c.524.921.926 1.902 1.207 2.943.282 1.041.426 2.13.434 3.267a12.5 12.5 0 0 1-.586 3.82c-.39 1.225-.95 2.35-1.676 3.375a12.48 12.48 0 0 1-2.59 2.691c-1 .769-2.117 1.366-3.351 1.79a.348.348 0 0 1-.106.012.348.348 0 0 0-.105.012.594.594 0 0 1-.445-.168.61.61 0 0 1-.164-.445v-1.681c0-.553.003-1.117.011-1.694 0-.408-.058-.82-.175-1.237a2.198 2.198 0 0 0-.633-1.045c.906-.104 1.699-.293 2.379-.565a4.66 4.66 0 0 0 1.71-1.153 4.737 4.737 0 0 0 1.032-1.802c.226-.705.344-1.553.351-2.546 0-.625-.101-1.213-.304-1.766a4.879 4.879 0 0 0-.926-1.538c.086-.224.148-.456.187-.696a4.491 4.491 0 0 0-.035-1.646 5.765 5.765 0 0 0-.27-.913.337.337 0 0 0-.128-.024h-.13c-.25 0-.51.04-.784.12-.274.08-.543.184-.809.313a10.64 10.64 0 0 0-.785.42c-.258.152-.48.296-.668.432-.977-.28-1.977-.42-3-.42s-2.023.14-3 .42c-.195-.136-.418-.28-.668-.432a7.165 7.165 0 0 0-1.594-.72 2.638 2.638 0 0 0-.785-.133h-.129a.337.337 0 0 0-.129.024c-.11.296-.195.597-.258.901a5.289 5.289 0 0 0-.105.937c0 .24.02.48.059.72.039.24.101.473.187.697a4.738 4.738 0 0 0-.926 1.526 5.112 5.112 0 0 0-.304 1.778c0 .977.113 1.822.34 2.534.226.713.57 1.313 1.03 1.802a5 5 0 0 0 1.712 1.165c.68.288 1.472.48 2.379.577a2.045 2.045 0 0 0-.516.744c-.117.289-.2.59-.246.901a3.168 3.168 0 0 1-1.371.325c-.5 0-.914-.12-1.242-.36a3.447 3.447 0 0 1-.88-.986 3.448 3.448 0 0 0-.34-.456 3.012 3.012 0 0 0-.433-.409 2.118 2.118 0 0 0-.504-.288 1.684 1.684 0 0 0-.562-.12h-.14a.433.433 0 0 0-.177.036l-.164.072c-.054.024-.078.064-.07.12 0 .096.055.188.164.277l.27.216.035.024c.172.136.32.264.445.384s.242.252.352.397c.11.144.199.296.27.456.07.16.16.348.269.565.265.624.636 1.077 1.113 1.357s1.05.424 1.723.432a5.189 5.189 0 0 0 1.218-.144v2.09a.625.625 0 0 1-.164.457c-.109.112-.261.168-.457.168H8.31a.228.228 0 0 1-.106-.024 11.446 11.446 0 0 1-3.351-1.766 12.003 12.003 0 0 1-2.59-2.703A12.75 12.75 0 0 1 0 12.3c0-1.129.14-2.218.422-3.267a11.732 11.732 0 0 1 1.219-2.93 13.442 13.442 0 0 1 1.875-2.487A11.466 11.466 0 0 1 5.94 1.682 11.927 11.927 0 0 1 8.813.444 11.936 11.936 0 0 1 12 0Z"/></svg>