<svg width="24" height="24" viewBox="0 0 24 24" fill="none" xmlns="http://www.w3.org/2000/svg">
<path d="M8.10417 2C8.60697 2 9.08919 2.19974 9.44472 2.55528C9.80026 2.91081 10 3.39303 10 3.89583V19.9375C10 20.4403 9.80026 20.9225 9.44472 21.2781C9.08919 21.6336 8.60697 21.8333 8.10417 21.8333H4.89583C4.64687 21.8333 4.40034 21.7843 4.17033 21.689C3.94032 21.5938 3.73132 21.4541 3.55528 21.2781C3.19974 20.9225 3 20.4403 3 19.9375V3.89583C3 3.39303 3.19974 2.91081 3.55528 2.55528C3.91081 2.19974 4.39303 2 4.89583 2H8.10417ZM18.6042 2C19.107 2 19.5892 2.19974 19.9447 2.55528C20.3003 2.91081 20.5 3.39303 20.5 3.89583V19.9375C20.5 20.4403 20.3003 20.9225 19.9447 21.2781C19.5892 21.6336 19.107 21.8333 18.6042 21.8333H15.3958C14.893 21.8333 14.4108 21.6336 14.0553 21.2781C13.6997 20.9225 13.5 20.4403 13.5 19.9375V3.89583C13.5 3.39303 13.6997 2.91081 14.0553 2.55528C14.4108 2.19974 14.893 2 15.3958 2H18.6042Z" fill="white"/>
</svg>
