<svg width="24" height="24" viewBox="0 0 24 24" fill="none" xmlns="http://www.w3.org/2000/svg">
<path d="M8.375 4.20592L20.5835 10.5584C20.8472 10.6957 21.0683 10.9026 21.2225 11.1568C21.3768 11.411 21.4584 11.7026 21.4584 11.9999C21.4584 12.2972 21.3768 12.5889 21.2225 12.843C21.0683 13.0972 20.8472 13.3042 20.5835 13.4414L8.375 19.7939C8.12732 19.9228 7.85061 19.9857 7.57156 19.9765C7.29251 19.9673 7.02054 19.8864 6.78186 19.7415C6.54318 19.5966 6.34586 19.3927 6.20891 19.1494C6.07196 18.9061 6.00001 18.6316 6 18.3524V5.64742C5.99993 5.37761 6.06704 5.11202 6.19527 4.87463C6.32351 4.63724 6.50884 4.43552 6.73454 4.28767C6.96023 4.13982 7.21919 4.05049 7.48804 4.02775C7.75689 4.00501 8.02718 4.04958 8.2745 4.15742L8.375 4.20592V4.20592Z" fill="white"/>
</svg>
