<svg xmlns="http://www.w3.org/2000/svg" fill="none" viewBox="0 0 16 16"><path fill="currentColor" d="M12.163 8.338h-.23c-.277-.781-.737-1.424-1.382-1.884l1.013-1.01c.184.091.368.137.599.137.782 0 1.381-.597 1.381-1.378 0-.781-.599-1.379-1.381-1.379-.783 0-1.382.598-1.382 1.379 0 .23.046.413.138.597L9.77 5.95a4.123 4.123 0 0 0-3.455 0L5.117 4.8a1.27 1.27 0 0 0 .138-.597c0-.781-.598-1.379-1.381-1.379s-1.382.598-1.382 1.379c0 .78.599 1.378 1.382 1.378.23 0 .414-.046.598-.138l1.013 1.011a4.124 4.124 0 0 0-1.381 1.884h-.23c-.783 0-1.382.597-1.382 1.378 0 .781.599 1.379 1.382 1.379h.23a4.17 4.17 0 0 0 3.914 2.756 4.17 4.17 0 0 0 3.914-2.756h.23c.783 0 1.382-.598 1.382-1.379 0-.78-.599-1.378-1.381-1.378Zm0 1.838h-8.29a.46.46 0 0 1-.46-.46c0-.275.23-.46.46-.46h8.29c.23 0 .46.185.46.46a.46.46 0 0 1-.46.46Z"/></svg>