<svg width="25" height="25" viewBox="0 0 25 25" fill="none" xmlns="http://www.w3.org/2000/svg">
<path fill-rule="evenodd" clip-rule="evenodd" d="M18.1782 16.2661C17.0737 16.2661 16.1782 17.1615 16.1782 18.2661C16.1782 19.3707 17.0737 20.2661 18.1782 20.2661C19.2828 20.2661 20.1782 19.3707 20.1782 18.2661C20.1782 17.1615 19.2828 16.2661 18.1782 16.2661ZM14.1782 18.2661C14.1782 16.057 15.9691 14.2661 18.1782 14.2661C20.3874 14.2661 22.1782 16.057 22.1782 18.2661C22.1782 20.4753 20.3874 22.2661 18.1782 22.2661C15.9691 22.2661 14.1782 20.4753 14.1782 18.2661Z" fill="#E624BB"/>
<path fill-rule="evenodd" clip-rule="evenodd" d="M6.17822 4.26611C5.07365 4.26611 4.17822 5.16154 4.17822 6.26611C4.17822 7.37068 5.07365 8.26611 6.17822 8.26611C7.28279 8.26611 8.17822 7.37068 8.17822 6.26611C8.17822 5.16154 7.28279 4.26611 6.17822 4.26611ZM2.17822 6.26611C2.17822 4.05697 3.96908 2.26611 6.17822 2.26611C8.38736 2.26611 10.1782 4.05697 10.1782 6.26611C10.1782 8.47525 8.38736 10.2661 6.17822 10.2661C3.96908 10.2661 2.17822 8.47525 2.17822 6.26611Z" fill="#E624BB"/>
<path fill-rule="evenodd" clip-rule="evenodd" d="M6.17822 8.26611C6.73051 8.26611 7.17822 8.71383 7.17822 9.26611C7.17822 11.3878 8.02108 13.4227 9.52137 14.923C11.0217 16.4233 13.0565 17.2661 15.1782 17.2661C15.7305 17.2661 16.1782 17.7138 16.1782 18.2661C16.1782 18.8184 15.7305 19.2661 15.1782 19.2661C12.5261 19.2661 9.98252 18.2125 8.10715 16.3372C7.7706 16.0006 7.46051 15.6425 7.17822 15.2662V21.2661C7.17822 21.8184 6.73051 22.2661 6.17822 22.2661C5.62594 22.2661 5.17822 21.8184 5.17822 21.2661V9.26611C5.17822 8.71383 5.62594 8.26611 6.17822 8.26611Z" fill="#E624BB"/>
</svg>
