<svg xmlns="http://www.w3.org/2000/svg"><defs><linearGradient id="f" x1="49.62" x2="278.529" y1="0" y2="793.019" gradientUnits="userSpaceOnUse"><stop offset=".019" stop-color="#CD7B99"/><stop offset=".203" stop-color="#323033"/></linearGradient><linearGradient id="e" x1="-10%" x2="100%" y1="-10%" y2="600%" gradientUnits="userSpaceOnUse"><stop stop-color="#fff"/><stop offset=".832" stop-color="#fff" stop-opacity="0"/></linearGradient><filter id="d" color-interpolation-filters="sRGB" filterUnits="userSpaceOnUse"><feFlood flood-opacity="0" result="BackgroundImageFix"/><feBlend in="SourceGraphic" in2="BackgroundImageFix" result="shape"/><feGaussianBlur stdDeviation="62.5"/></filter></defs><g transform="translate(40 120)"><path fill="url(#a)" fill-opacity=".1" fill-rule="evenodd" d="M25.042 43H25v51a230.545 230.545 0 0 0 186 0V43h-.042C209.468 60.763 168.42 75 118 75S26.532 60.763 25.042 43Z" clip-rule="evenodd"/><ellipse cx="118" cy="42" fill="url(#b)" fill-opacity=".07" rx="118" ry="42"/><path fill="url(#c)" fill-opacity=".1" fill-rule="evenodd" d="M118 119c66.274 0 120-19.252 120-43v425H0V83.86C10.306 103.855 59.217 119 118 119Z" clip-rule="evenodd"/><defs><radialGradient id="a" cx="0" cy="0" r="1" gradientTransform="matrix(0 61.1647 -108.179 0 118 52.903)" gradientUnits="userSpaceOnUse"><stop offset=".561" stop-color="#8075FF"/><stop offset="1" stop-color="#6557FF" stop-opacity="0"/><stop offset="1" stop-color="#6557FF" stop-opacity="0"/></radialGradient><radialGradient id="b" cx="0" cy="0" r="1" gradientTransform="matrix(0 42 -118 0 118 42)" gradientUnits="userSpaceOnUse"><stop stop-color="#8075FF"/><stop offset="1" stop-color="#6557FF" stop-opacity="0"/><stop offset="1" stop-color="#C4C4C4" stop-opacity="0"/><stop offset="1" stop-color="#4333FF" stop-opacity="0"/></radialGradient><linearGradient id="c" x1="119" x2="119" y1="76" y2="152.5" gradientUnits="userSpaceOnUse"><stop stop-color="#8075FF"/><stop offset="1" stop-color="#6557FF" stop-opacity="0"/><stop offset="1" stop-color="#C4C4C4" stop-opacity="0"/></linearGradient></defs></g><g filter="url(#d)"><ellipse cx="50%" cy="100%" fill="url(#e)" fill-opacity=".18" rx="235.377" ry="76.517"/></g><rect width="100%" height="100%" x="2" y="2" fill="none" stroke="url(#f)" stroke-width="2" rx="40" style="width:calc(100% - 4px);height:calc(100% - 4px)"/></svg>