<svg xmlns="http://www.w3.org/2000/svg" fill="none" viewBox="0 0 122 122"><g clip-path="url(#a)"><mask id="b" width="106" height="122" x="8" y="0" maskUnits="userSpaceOnUse" style="mask-type:alpha"><path fill="#000" d="m60.966 0 52.699 30.426v60.852l-52.7 30.427L8.267 91.278V30.426L60.966 0Z"/></mask><g mask="url(#b)"><path fill="#280068" d="M6.113-1h109.333v123H6.113z"/><path fill="#659AD2" d="M114.961 34.806c-.001-2.048-.439-3.857-1.325-5.41-.87-1.528-2.173-2.808-3.921-3.82C95.288 17.258 80.847 8.966 66.424.64c-3.888-2.244-7.658-2.162-11.518.115-5.742 3.385-34.493 19.856-43.06 24.818-3.529 2.042-5.246 5.168-5.247 9.23-.005 16.728 0 33.456-.005 50.185 0 2.002.42 3.777 1.267 5.306.87 1.574 2.192 2.889 3.98 3.924 8.568 4.962 37.322 21.431 43.063 24.818 3.862 2.278 7.632 2.359 11.521.115 14.423-8.327 28.865-16.62 43.295-24.938 1.788-1.035 3.109-2.35 3.98-3.923.845-1.53 1.266-3.304 1.266-5.307 0 0 0-33.447-.005-50.176Z"/><path fill="#004482" d="M60.946 60.337 7.861 90.899c.87 1.573 2.192 2.888 3.98 3.924 8.568 4.961 37.322 21.43 43.063 24.818 3.862 2.278 7.632 2.359 11.521.114 14.423-8.327 28.865-16.62 43.295-24.938 1.788-1.034 3.109-2.35 3.98-3.922L60.946 60.337Z"/><path fill="#00599C" d="M114.961 35.411c-.001-2.047-.439-3.857-1.325-5.41l-52.69 30.336L113.7 90.895c.845-1.53 1.266-3.304 1.266-5.308 0 0 0-33.447-.005-50.176Z"/><path fill="#fff" d="M61.063 20.222c14.901 0 27.912 8.092 34.88 20.12l-.067-.115L78.342 50.32c-3.454-5.848-9.786-9.795-17.05-9.877h-.23c-11.077 0-20.058 8.98-20.058 20.056a19.959 19.959 0 0 0 2.645 9.95c3.458 6.036 9.958 10.106 17.414 10.106 7.502 0 14.038-4.122 17.478-10.222l-.083.147 17.506 10.14c-6.892 11.927-19.724 19.994-34.453 20.155l-.448.002c-14.95 0-27.997-8.142-34.948-20.234A40.091 40.091 0 0 1 20.78 60.5c0-22.245 18.035-40.279 40.282-40.279Z"/><path fill="#fff" d="M94.43 58.476h-4.048v-4.048h-4.047v4.048h-4.049v4.048h4.049v4.048h4.047v-4.048h4.049v-4.048Zm15.181 0h-4.048v-4.048h-4.048v4.048h-4.048v4.048h4.048v4.048h4.048v-4.048h4.048v-4.048Z"/></g></g><defs><clipPath id="a"><path fill="#fff" d="M.113 0h121.705v121.705H.113z"/></clipPath></defs></svg>