<svg xmlns="http://www.w3.org/2000/svg" fill="none" viewBox="0 0 122 122"><g clip-path="url(#a)"><mask id="b" width="106" height="122" x="8" y="0" maskUnits="userSpaceOnUse" style="mask-type:alpha"><path fill="#000" d="m60.852 0 52.7 30.426v60.852l-52.7 30.427-52.7-30.427V30.426L60.853 0Z"/></mask><g mask="url(#b)"><path fill="#F7DF1E" d="M122 0H0v122h122V0Z"/><path fill="#000" d="M79.06 84.799c2.014 3.289 4.635 5.707 9.27 5.707 3.895 0 6.382-1.947 6.382-4.636 0-3.222-2.556-4.363-6.842-6.238l-2.35-1.008c-6.78-2.89-11.286-6.509-11.286-14.16 0-7.048 5.37-12.414 13.763-12.414 5.975 0 10.27 2.08 13.366 7.525l-7.318 4.698c-1.61-2.889-3.35-4.027-6.048-4.027-2.752 0-4.497 1.746-4.497 4.027 0 2.82 1.746 3.961 5.778 5.707l2.35 1.007c7.984 3.424 12.493 6.915 12.493 14.763 0 8.46-6.647 13.096-15.573 13.096-8.728 0-14.366-4.16-17.125-9.61l7.637-4.437Zm-33.198.814c1.477 2.62 2.82 4.834 6.048 4.834 3.088 0 5.036-1.208 5.036-5.905V52.587h9.397v32.082c0 9.73-5.705 14.16-14.033 14.16-7.524 0-11.881-3.894-14.097-8.584l7.65-4.632Z"/></g></g><defs><clipPath id="a"><path fill="#fff" d="M0 0h121.705v121.705H0z"/></clipPath></defs></svg>