<svg xmlns="http://www.w3.org/2000/svg" fill="none" viewBox="0 0 123 122"><g clip-path="url(#a)"><mask id="b" width="107" height="122" x="8" y="0" maskUnits="userSpaceOnUse" style="mask-type:alpha"><path fill="#000" d="m61.557 0 52.699 30.426v60.852l-52.7 30.427L8.858 91.278V30.426L61.557 0Z"/></mask><g mask="url(#b)"><path fill="#fff" d="M122.704 0h-122v122h122V0Z"/><path fill="#000" stroke="#000" stroke-linejoin="round" stroke-width=".745" d="M55.371 50.196h9.686c5.961 0 5.961 5.96 0 5.96h-9.686v-5.96ZM32.273 77.765h29.804v-8.196h-6.706v-5.961h7.451c8.196 0 3.726 14.157 10.431 14.157h18.628V63.608h-4.47v1.49c0 5.96-6.707 5.216-7.452 1.49-.745-3.725-3.725-6.706-4.47-6.706C86.665 53.922 79.959 42 71.019 42h-35.02v8.196h7.45V69.57H32.274v8.196Z"/><path stroke="#000" stroke-width="6.706" d="M61.705 93.04c17.694 0 32.039-14.345 32.039-32.04s-14.345-32.04-32.04-32.04C44.01 28.96 29.666 43.306 29.666 61s14.345 32.04 32.04 32.04Z"/><path fill="#000" stroke="#000" stroke-linejoin="round" stroke-width="2.235" d="M95.979 63.235 99.704 61l-3.725-2.235v4.47Zm-1.095 6.644 4.09-1.466-3.218-2.919-.872 4.385Zm-2.369 6.302 4.297-.639-2.587-3.49-1.71 4.13ZM88.96 81.9l4.34.212-1.855-3.929L88.96 81.9Zm-4.6 4.916 4.215 1.054-1.054-4.215-3.161 3.161Zm-5.472 3.924 3.928 1.856-.211-4.34-3.717 2.484Zm-6.132 2.78 3.49 2.587.64-4.297-4.13 1.71Zm-6.557 1.532 2.919 3.218 1.466-4.09-4.385.872Zm-6.729.223L61.704 99l2.235-3.725h-4.47Zm-6.645-1.095 1.466 4.09 2.92-3.218-4.386-.872Zm-6.302-2.37.64 4.297 3.49-2.586-4.13-1.71Zm-5.719-3.554-.211 4.34 3.928-1.856-3.717-2.484Zm-4.916-4.601-1.054 4.215 4.215-1.054-3.16-3.16Zm-3.924-5.472-1.855 3.929 4.34-.212-2.485-3.717Zm-2.78-6.132-2.587 3.491 4.297.64-1.71-4.13Zm-1.532-6.557-3.217 2.92 4.09 1.465-.872-4.385Zm-.222-6.729L23.704 61l3.726 2.235v-4.47Zm1.095-6.644-4.09 1.466 3.218 2.919.872-4.385Zm2.369-6.302-4.297.639 2.587 3.49 1.71-4.13Zm3.554-5.719-4.34-.212 1.856 3.929 2.484-3.718Zm4.602-4.916-4.215-1.054 1.053 4.215 3.161-3.161Zm5.471-3.924-3.928-1.856.211 4.34 3.717-2.484Zm6.132-2.78-3.49-2.587-.64 4.297 4.13-1.71Zm6.557-1.532-2.919-3.218-1.465 4.09 4.384-.872Zm6.73-.222L61.705 23l-2.236 3.726h4.47Zm6.644 1.094-1.466-4.09-2.92 3.218 4.386.872Zm6.302 2.37-.64-4.297-3.49 2.586 4.13 1.71Zm5.719 3.554.211-4.34-3.928 1.856 3.717 2.484Zm4.915 4.601 1.055-4.215-4.215 1.054 3.16 3.16Zm3.925 5.472 1.855-3.929-4.34.212 2.485 3.717Zm2.78 6.132 2.587-3.491-4.297-.64 1.71 4.13Zm1.532 6.557 3.217-2.92-4.09-1.465.873 4.385Z"/><path fill="#000" stroke="#000" stroke-linejoin="round" stroke-width="4.471" d="m56.489 29.706 5.216 5.216 5.215-5.216H56.49ZM89.855 46.37l-3.349 6.571 6.573 3.349-3.224-9.92Zm-5.537 36.882-7.285-1.154-1.154 7.285 8.44-6.131ZM47.53 89.383l-1.154-7.285-7.285 1.154 8.439 6.131ZM30.33 56.29l6.572-3.349-3.348-6.572-3.224 9.921Z"/></g></g><defs><clipPath id="a"><path fill="#fff" d="M.704 0H122.41v121.705H.704z"/></clipPath></defs></svg>